# xmcd CD database file
#
# Track frame offsets:
#	182
#	17183
#	31522
#	48247
#	59745
#	73083
#	85346
#	100185
#	112282
#	125995
#	141188
#	153347
#	168784
#	184337
#	198606
#	211941
#	227107
#	241533
#	256029
#	269942
#	282841
#	295614
#	309403
#
# Disc length: 4315 seconds
#
# Revision: 1
# Processed by: cddbd v1.5.1PL0 Copyright (c) Steve Scherf et al.
# Submitted via: CDex 1.51
#
DISCID=5610d917
DTITLE=Lionel Hampton - Complete Edition Vol. 3 1937
DYEAR=1998
DGENRE=Jazz
TTITLE0=Limehouse Blues
TTITLE1=Runnin' Wild
TTITLE2=I Got Rhythm
TTITLE3=Diga Diga Doo
TTITLE4=The Sheik Of Araby
TTITLE5=Dinah
TTITLE6=Stompin' At the Savoy
TTITLE7=Twilight In Turkey
TTITLE8=Smiles
TTITLE9=Liza
TTITLE10=Shine
TTITLE11=Vibraphone Blues
TTITLE12=Confessin' (I'm Confessin')
TTITLE13=Drum Stomp (Crazy Rhythm)
TTITLE14=Piano Stomp (Shine)
TTITLE15=I Surrender, Dear
TTITLE16=The Object Of My Affection -1
TTITLE17=The Object Of My Affection -2
TTITLE18=Judy
TTITLE19=Baby, Won't You Please Come Home
TTITLE20=Everybody Loves My Baby
TTITLE21=After you've Gone
TTITLE22=I Just Couldn't Take It, Baby
EXTD=YEAR: 1998
EXTT0=
EXTT1=
EXTT2=
EXTT3=
EXTT4=
EXTT5=
EXTT6=
EXTT7=
EXTT8=
EXTT9=
EXTT10=
EXTT11=
EXTT12=
EXTT13=
EXTT14=
EXTT15=
EXTT16=
EXTT17=
EXTT18=
EXTT19=
EXTT20=
EXTT21=
EXTT22=
PLAYORDER=
